<?xml version="1.0" encoding="UTF-8"?>
<svg width="768px" height="98px" viewBox="0 0 768 98" version="1.1" xmlns="http://www.w3.org/2000/svg" xmlns:xlink="http://www.w3.org/1999/xlink">
    <!-- Generator: Sketch 46.2 (44496) - http://www.bohemiancoding.com/sketch -->
    <title>Group 2</title>
    <desc>Created with Sketch.</desc>
    <defs></defs>
    <g id="Page-3" stroke="none" stroke-width="1" fill="none" fill-rule="evenodd">
        <g id="国际学校备考" transform="translate(-331.000000, -174.000000)">
            <g id="Group-2" transform="translate(331.000000, 174.000000)">
                <g id="Group">
                    <path d="M19,54 C19,53.9703477 38,29.2624261 38,18.8511973 C38,8.43996853 29.4934102,0 19,0 C8.50658975,0 0,8.43996853 0,18.8511973 C0,29.2624261 19,54.0296523 19,54 Z" id="Oval-2" fill="#000000"></path>
                    <circle id="Oval" fill="#FFFFFF" cx="18.5" cy="18.5" r="6.5"></circle>
                </g>
                <g id="Group" transform="translate(244.000000, 27.000000)">
                    <path d="M19,54 C19,53.9703477 38,29.2624261 38,18.8511973 C38,8.43996853 29.4934102,0 19,0 C8.50658975,0 0,8.43996853 0,18.8511973 C0,29.2624261 19,54.0296523 19,54 Z" id="Oval-2" fill="#000000"></path>
                    <circle id="Oval" fill="#FFFFFF" cx="18.5" cy="18.5" r="6.5"></circle>
                </g>
                <g id="Group-Copy" transform="translate(487.000000, 0.000000)">
                    <path d="M19,54 C19,53.9703477 38,29.2624261 38,18.8511973 C38,8.43996853 29.4934102,0 19,0 C8.50658975,0 0,8.43996853 0,18.8511973 C0,29.2624261 19,54.0296523 19,54 Z" id="Oval-2" fill="#000000"></path>
                    <circle id="Oval" fill="#FFFFFF" cx="18.5" cy="18.5" r="6.5"></circle>
                </g>
                <g id="Group-Copy-3" transform="translate(730.000000, 27.000000)">
                    <path d="M19,54 C19,53.8858896 38,29.2624261 38,18.8511973 C38,8.43996853 29.4934102,0 19,0 C8.50658975,0 0,8.43996853 0,18.8511973 C0,29.2624261 19,54.1141104 19,54 Z" id="Oval-2" fill="#000000"></path>
                    <circle id="Oval" fill="#FFFFFF" cx="18.5" cy="18.5" r="6.5"></circle>
                </g>
                <path d="M482.5,69.5 L275.5,92.5" id="Line-2" stroke="#D7D7D7" stroke-width="7" stroke-linecap="round" stroke-linejoin="round" stroke-dasharray="1,23"></path>
                <path d="M235.5,90.5 L34.5,68.5" id="Line-2" stroke="#D7D7D7" stroke-width="7" stroke-linecap="round" stroke-linejoin="round" stroke-dasharray="1,23"></path>
                <path d="M723.5,90.5 L522.5,68.5" id="Line-2" stroke="#D7D7D7" stroke-width="7" stroke-linecap="round" stroke-linejoin="round" stroke-dasharray="1,23"></path>
                <circle id="Oval-3" fill="#D0021B" cx="19" cy="66" r="5"></circle>
                <circle id="Oval-3" fill="#D0021B" cx="263" cy="93" r="5"></circle>
                <circle id="Oval-3" fill="#D0021B" cx="506" cy="66" r="5"></circle>
                <circle id="Oval-3" fill="#D0021B" cx="749" cy="93" r="5"></circle>
            </g>
        </g>
    </g>
</svg>