<?xml version="1.0" encoding="UTF-8"?>
<svg width="27px" height="24px" viewBox="0 0 27 24" version="1.1" xmlns="http://www.w3.org/2000/svg" xmlns:xlink="http://www.w3.org/1999/xlink">
    <!-- Generator: Sketch 46.2 (44496) - http://www.bohemiancoding.com/sketch -->
    <title>Page 1</title>
    <desc>Created with Sketch.</desc>
    <defs>
        <polygon id="path-1" points="0 0.674774026 0 24 26.1893333 24 26.1893333 0.674774026"></polygon>
    </defs>
    <g id="Page-3" stroke="none" stroke-width="1" fill="none" fill-rule="evenodd">
        <g id="国际学校备考" transform="translate(-1063.000000, -429.000000)">
            <g id="Page-1" transform="translate(1063.000000, 429.000000)">
                <g id="Group-3">
                    <mask id="mask-2" fill="white">
                        <use xlink:href="#path-1"></use>
                    </mask>
                    <g id="Clip-2"></g>
                    <path d="M2.91498667,23.9107481 C2.66672,23.7655792 2.55098667,23.4770338 2.63872,23.2082026 L4.13392,18.6416571 L3.34245333,18.6416571 C1.50005333,18.6398649 0.00112,17.2025143 -0.000746666667,15.4336052 L-0.000746666667,3.88641039 C0.00112,2.1175013 1.50005333,0.678358442 3.34245333,0.674774026 L22.8472533,0.674774026 L22.8472533,1.28233247 L22.8472533,1.89168312 L3.34245333,1.89168312 C2.20378667,1.89347532 1.26672,2.79316364 1.26298667,3.88641039 L1.26298667,15.4336052 C1.26672,16.5268519 2.20378667,17.4247481 3.34245333,17.4265403 L4.99632,17.4265403 C5.19792,17.4265403 5.38645333,17.5197351 5.50778667,17.6756571 C5.62538667,17.829787 5.66085333,18.0323065 5.59738667,18.2169039 L4.62112,21.2098909 L8.37685333,17.6039688 C8.49258667,17.4910597 8.65685333,17.4265403 8.82298667,17.4265403 L22.8472533,17.4265403 C23.98592,17.4247481 24.9229867,16.5268519 24.9248533,15.4336052 L24.9248533,3.88641039 C24.9229867,2.79316364 23.9840533,1.89347532 22.8472533,1.89168312 L22.8472533,1.28233247 L22.8472533,0.674774026 C24.6896533,0.678358442 26.18672,2.1175013 26.1904533,3.88641039 L26.1904533,15.4336052 C26.18672,17.2025143 24.6877867,18.6398649 22.8472533,18.6416571 L9.08432,18.6416571 L3.69152,23.8211377 C3.56832,23.9394234 3.40778667,24.0003584 3.24352,24.0003584 C3.12965333,24.0003584 3.01765333,23.9698909 2.91498667,23.9107481" id="Fill-1" fill="#515151" mask="url(#mask-2)"></path>
                </g>
                <path d="M7.84783225,9.7644363 L7.39756305,8.46471127 C7.06630774,7.55728689 6.79455937,6.69385885 6.49900822,5.75343721 L6.45140266,5.75343721 C6.1677529,6.70485793 5.88410315,7.55728689 5.56474922,8.46471127 L5.11646359,9.7644363 L7.84783225,9.7644363 Z M8.09577784,10.4757104 L4.86653443,10.4757104 L3.98186455,13 L3,13 L5.95551148,5 L7.03060357,5 L10,13 L8.95862851,13 L8.09577784,10.4757104 Z" id="Fill-4" fill="#515151"></path>
                <path d="M13.5534884,12.2777269 C15.0983389,12.2777269 16.0372093,11.7644363 16.0372093,10.6278643 C16.0372093,9.60128323 15.1342193,9.13015582 13.5534884,9.13015582 L11.9847176,9.13015582 L11.9847176,12.2777269 L13.5534884,12.2777269 Z M13.3162791,8.43171402 C14.8850498,8.43171402 15.5129568,7.90742438 15.5129568,7.0659945 C15.5129568,6.08157654 14.7873754,5.72043996 13.3740864,5.72043996 L11.9847176,5.72043996 L11.9847176,8.43171402 L13.3162791,8.43171402 Z M11,5 L13.5156146,5 C15.2877076,5 16.489701,5.56828598 16.489701,6.95600367 C16.489701,7.75343721 16.0252492,8.44271311 15.1920266,8.69385885 L15.1920266,8.73785518 C16.2604651,8.92300642 17,9.5664528 17,10.6608616 C17,12.2227314 15.6564784,13 13.7069767,13 L11,13 L11,5 Z" id="Fill-6" fill="#515151"></path>
                <path d="M17,9.5 C17,6.70916335 18.5173059,5 20.5809167,5 C21.5724977,5 22.3320861,5.50996016 22.7998129,6.05577689 L22.2871843,6.69721116 C21.8624883,6.19920319 21.3049579,5.86653386 20.5921422,5.86653386 C18.9962582,5.86653386 17.94855,7.24302789 17.94855,9.47609562 C17.94855,11.7191235 18.9532273,13.1334661 20.5565949,13.1334661 C21.3498597,13.1334661 21.950421,12.7768924 22.4873714,12.1354582 L23,12.752988 C22.3638915,13.5498008 21.5724977,14 20.5135641,14 C18.494855,14 17,12.314741 17,9.5" id="Fill-8" fill="#515151"></path>
            </g>
        </g>
    </g>
</svg>