<?xml version="1.0" encoding="UTF-8"?>
<svg width="21px" height="21px" viewBox="0 0 21 21" version="1.1" xmlns="http://www.w3.org/2000/svg" xmlns:xlink="http://www.w3.org/1999/xlink">
    <!-- Generator: Sketch 46.2 (44496) - http://www.bohemiancoding.com/sketch -->
    <title>Page 1</title>
    <desc>Created with Sketch.</desc>
    <defs>
        <polygon id="path-1" points="0 21 21 21 21 0 0 0"></polygon>
    </defs>
    <g id="Page-3" stroke="none" stroke-width="1" fill="none" fill-rule="evenodd">
        <g id="国际学校备考" transform="translate(-590.000000, -430.000000)">
            <g id="Page-1" transform="translate(590.000000, 430.000000)">
                <mask id="mask-2" fill="white">
                    <use xlink:href="#path-1"></use>
                </mask>
                <g id="Clip-2"></g>
                <path d="M15.4885764,11.0817694 C13.727812,11.0817694 12.2807557,12.4220286 12.0654657,14.1532618 L1.04108084,14.1532618 L1.04108084,1.05875782 L16.4297012,1.05875782 L16.4297012,4.38047364 L19.9573814,4.38047364 L19.9573814,14.1532618 L18.9116872,14.1532618 C18.697935,12.4220286 17.2493409,11.0817694 15.4885764,11.0817694 L15.4885764,11.0817694 Z M18.8071178,19.9396783 L17.1217047,19.9396783 L17.1232425,17.6876676 C17.2370387,17.6251117 17.3462214,17.5563003 17.4507909,17.4812332 L18.8071178,19.9396783 Z M15.4885764,17.0464701 C14.1583919,17.0449062 13.0804042,15.9486148 13.0788664,14.5942806 C13.081942,13.2399464 14.1583919,12.1452189 15.4885764,12.1420912 C16.818761,12.1452189 17.8967487,13.2399464 17.8998243,14.5942806 C17.8967487,15.9486148 16.818761,17.0449062 15.4885764,17.0464701 L15.4885764,17.0464701 Z M14.2106766,19.9396783 L12.5268014,19.9396783 L13.7908612,17.650134 C13.9246485,17.7283289 14.064587,17.7955764 14.2106766,17.8550045 L14.2106766,19.9396783 Z M17.4723199,1.75312779 L19.1454306,3.32171582 L17.4723199,3.32171582 L17.4723199,1.75312779 Z M21,15.2135836 L21,3.62042002 L20.8323814,3.46246649 L17.1401582,0 L0,0 L0,15.2135836 L12.0931459,15.2135836 C12.2115554,15.8907507 12.5206503,16.4991063 12.9619947,16.9823503 L10.7475835,20.9984361 L15.2532953,20.9984361 L15.2532953,18.0942806 C15.3301845,18.0989723 15.4086116,18.1052279 15.4885764,18.1052279 C15.6915641,18.1052279 15.8884007,18.0848972 16.0821617,18.0504915 L16.0821617,21 L20.5863357,21 L18.2289104,16.7243074 C18.5564587,16.2895442 18.7871265,15.7750223 18.884007,15.2135836 L21,15.2135836 Z M2.53427065,9.5163092 L11.9009227,9.5163092 L11.9009227,8.45598749 L2.53427065,8.45598749 L2.53427065,9.5163092 Z M2.53427065,6.93431635 L11.9009227,6.93431635 L11.9009227,5.87399464 L2.53427065,5.87399464 L2.53427065,6.93431635 Z M2.53427065,4.3538874 L11.9009227,4.3538874 L11.9009227,3.29356568 L2.53427065,3.29356568 L2.53427065,4.3538874 Z" id="Fill-1" fill="#515151" mask="url(#mask-2)"></path>
            </g>
        </g>
    </g>
</svg>