<?xml version="1.0" encoding="UTF-8"?>
<svg width="229px" height="281px" viewBox="0 0 229 281" version="1.1" xmlns="http://www.w3.org/2000/svg" xmlns:xlink="http://www.w3.org/1999/xlink">
    <!-- Generator: Sketch 46.2 (44496) - http://www.bohemiancoding.com/sketch -->
    <title>Group 4</title>
    <desc>Created with Sketch.</desc>
    <defs>
        <path d="M80.5040723,23 L11,23 L11,23 C4.92486775,23 -7.43989126e-16,27.9248678 0,34 L0,34 L0,262 C7.43989126e-16,268.075132 4.92486775,273 11,273 L210,273 C216.075132,273 221,268.075132 221,262 L221,34 C221,27.9248678 216.075132,23 210,23 L210,23 L140.495928,23 C140.292579,39.3246596 126.940833,52.4957983 110.5,52.4957983 C94.0591666,52.4957983 80.7074207,39.3246596 80.5040723,23 Z" id="path-1"></path>
        <filter x="-3.2%" y="-2.0%" width="106.3%" height="105.6%" filterUnits="objectBoundingBox" id="filter-2">
            <feOffset dx="0" dy="2" in="SourceAlpha" result="shadowOffsetOuter1"></feOffset>
            <feGaussianBlur stdDeviation="2" in="shadowOffsetOuter1" result="shadowBlurOuter1"></feGaussianBlur>
            <feColorMatrix values="0 0 0 0 0.843137255   0 0 0 0 0.843137255   0 0 0 0 0.843137255  0 0 0 1 0" type="matrix" in="shadowBlurOuter1"></feColorMatrix>
        </filter>
        <circle id="path-3" cx="111" cy="24" r="24"></circle>
        <filter x="-14.6%" y="-10.4%" width="129.2%" height="129.2%" filterUnits="objectBoundingBox" id="filter-4">
            <feOffset dx="0" dy="2" in="SourceAlpha" result="shadowOffsetOuter1"></feOffset>
            <feGaussianBlur stdDeviation="2" in="shadowOffsetOuter1" result="shadowBlurOuter1"></feGaussianBlur>
            <feColorMatrix values="0 0 0 0 0.843137255   0 0 0 0 0.843137255   0 0 0 0 0.843137255  0 0 0 1 0" type="matrix" in="shadowBlurOuter1"></feColorMatrix>
        </filter>
    </defs>
    <g id="Page-3" stroke="none" stroke-width="1" fill="none" fill-rule="evenodd">
        <g id="国际学校备考" transform="translate(-236.000000, -414.000000)">
            <g id="Group-4" transform="translate(240.000000, 416.000000)">
                <g id="Combined-Shape">
                    <use fill="black" fill-opacity="1" filter="url(#filter-2)" xlink:href="#path-1"></use>
                    <use fill="#FFFFFF" fill-rule="evenodd" xlink:href="#path-1"></use>
                </g>
                <g id="Oval-5">
                    <use fill="black" fill-opacity="1" filter="url(#filter-4)" xlink:href="#path-3"></use>
                    <use fill="#FFFFFF" fill-rule="evenodd" xlink:href="#path-3"></use>
                </g>
            </g>
        </g>
    </g>
</svg>