<?xml version="1.0" encoding="UTF-8"?>
<svg width="30px" height="21px" viewBox="0 0 30 21" version="1.1" xmlns="http://www.w3.org/2000/svg" xmlns:xlink="http://www.w3.org/1999/xlink">
    <!-- Generator: Sketch 46.2 (44496) - http://www.bohemiancoding.com/sketch -->
    <title>Page 1</title>
    <desc>Created with Sketch.</desc>
    <defs>
        <polygon id="path-1" points="30 10.5 30 0 0 0 0 10.5 0 21 30 21 30 10.5"></polygon>
    </defs>
    <g id="Page-3" stroke="none" stroke-width="1" fill="none" fill-rule="evenodd">
        <g id="国际学校备考" transform="translate(-336.000000, -430.000000)">
            <g id="Page-1" transform="translate(336.000000, 430.000000)">
                <mask id="mask-2" fill="white">
                    <use xlink:href="#path-1"></use>
                </mask>
                <g id="Clip-2"></g>
                <path d="M28.7061453,19.699203 C28.5553073,19.7969699 28.2905028,19.8781662 27.9905028,19.8765091 C27.6905028,19.8781662 27.4256983,19.7969699 27.2748603,19.699203 C27.152514,19.6196639 27.1273743,19.5649807 27.1189944,19.5434388 L27.6083799,15.0875878 C27.7290503,15.1207291 27.8530726,15.143928 27.9854749,15.143928 C28.1212291,15.143928 28.2502793,15.119072 28.3743017,15.0842737 L28.8636872,19.5467529 C28.8553073,19.5682948 28.8234637,19.622978 28.7061453,19.699203 L28.7061453,19.699203 Z M27.6804469,13.7188511 C27.6804469,13.5514874 27.8178771,13.415608 27.9854749,13.4139509 C28.1547486,13.415608 28.2921788,13.5514874 28.2921788,13.7188511 C28.2921788,13.8845577 28.1547486,14.0204371 27.9854749,14.0204371 C27.8178771,14.0204371 27.6804469,13.8845577 27.6804469,13.7188511 L27.6804469,13.7188511 Z M22.2268156,17.772035 L6.99888268,17.772035 L6.99888268,11.5431232 L14.4553073,15.443857 L14.7217877,15.2996923 L22.2268156,11.2945632 L22.2268156,17.772035 Z M16.3256983,7.77826876 C16.3307263,7.8793498 16.2469274,8.06494121 15.9335196,8.25384676 C15.6284916,8.43612404 15.149162,8.57200347 14.6128492,8.56868934 C14.0748603,8.57200347 13.5938547,8.43612404 13.2921788,8.25384676 C12.977095,8.06494121 12.8932961,7.8793498 12.896648,7.77826876 C12.8932961,7.67553066 12.977095,7.48993924 13.2921788,7.30269076 C13.5938547,7.12041348 14.0748603,6.98287698 14.6128492,6.98453405 C15.149162,6.98287698 15.6284916,7.12041348 15.9335196,7.30269076 C16.2469274,7.49159631 16.3307263,7.67553066 16.3256983,7.77826876 L16.3256983,7.77826876 Z M14.773743,1.27262684 L26.2139665,7.25297877 L17.3547486,7.25297877 C17.1972067,6.86191115 16.8804469,6.5503827 16.5184358,6.33827823 C15.9955307,6.03172098 15.3335196,5.8643573 14.6128492,5.86270023 C13.8888268,5.8643573 13.2284916,6.03172098 12.7055866,6.33827823 C12.1927374,6.63986428 11.7687151,7.13201294 11.7636872,7.77826876 C11.7687151,8.42286751 12.1927374,8.91501618 12.7055866,9.21660223 C13.2284916,9.52315947 13.8888268,9.69052316 14.6128492,9.69218023 C15.3335196,9.69052316 15.9955307,9.52315947 16.5184358,9.21660223 C16.8569832,9.01775428 17.1553073,8.73273889 17.322905,8.37646966 L25.3005587,8.37646966 L14.4486034,14.1695731 L2.41005587,7.8743786 L14.773743,1.27262684 Z M29.398324,14.0055236 C29.4184358,13.9127278 29.4284916,13.816618 29.4284916,13.7188511 C29.4284916,13.115679 29.0497207,12.6036455 28.5167598,12.3948552 L28.5167598,7.93569005 L29.2256983,7.55787896 L14.7703911,0 L0,7.884321 L5.86256983,10.9498935 L5.86256983,18.8955259 L23.3631285,18.8955259 L23.3631285,10.688077 L27.3804469,8.54217628 L27.3804469,12.4263395 C26.8877095,12.6533575 26.5441341,13.1438491 26.5441341,13.7188511 C26.5441341,13.8265604 26.5592179,13.9309556 26.5810056,14.0303795 L25.9810056,19.5053263 L25.9810056,19.5351535 C25.9843575,20.0405587 26.3027933,20.423341 26.6664804,20.648702 C27.0385475,20.8790342 27.4944134,20.9983429 27.9905028,21 C28.4865922,20.9983429 28.9424581,20.8790342 29.3145251,20.648702 C29.6782123,20.423341 29.998324,20.0405587 30,19.5351535 L30,19.5069834 L29.398324,14.0055236 Z" id="Fill-1" fill="#515151" mask="url(#mask-2)"></path>
            </g>
        </g>
    </g>
</svg>